<?xml version="1.0" encoding="UTF-8"?>
<!DOCTYPE svg PUBLIC "-//W3C//DTD SVG 1.1//EN" "http://www.w3.org/Graphics/SVG/1.1/DTD/svg11.dtd">
<svg version="1.1" xmlns="http://www.w3.org/2000/svg" xmlns:xlink="http://www.w3.org/1999/xlink" x="0" y="0" width="650" height="650" viewBox="0, 0, 492, 510">
  <g id="Layer_1">
    <path d="M397.762,438.707 C397.71,435.43 397.658,432.033 397.607,428.533 C445.604,386.336 475.95,324.518 475.95,255.738 C475.95,186.901 445.553,125.038 397.487,82.837 C397.492,79.307 397.496,75.869 397.498,72.546 C450.173,116.221 483.782,182.127 483.782,255.738 C483.782,329.227 450.283,395.031 397.762,438.707 M396.828,323.059 L396.828,323.059 C398.262,323.059 399.425,321.895 399.425,320.461 C399.425,319.029 398.264,317.867 396.832,317.865 C396.834,314.861 396.837,311.846 396.841,308.817 C402.701,292.197 405.9,274.337 405.9,255.738 C405.9,237.43 402.802,219.836 397.116,203.439 C397.268,159.555 397.433,118.034 397.483,84.996 C444.596,126.875 474.333,187.895 474.333,255.738 C474.333,323.537 444.635,384.524 397.576,426.399 C397.163,397.426 396.813,361.387 396.828,323.059 M397.079,214.227 C400.715,227.455 402.667,241.372 402.667,255.738 C402.667,270.401 400.639,284.598 396.856,298.068 C396.9,270.404 396.985,241.956 397.079,214.227 M391.116,316.768 L387.882,316.735 L391.654,108.651 L391.116,316.768 z M382.762,332.117 C360.748,371.414 322.312,400.317 276.808,409.459 C276.39,394.002 275.546,378.844 274.731,365.774 C271.736,317.715 268.413,263.788 270.026,200.959 L270.576,200.988 C270.624,200.991 270.673,200.992 270.721,200.992 C272.148,200.992 273.342,199.874 273.416,198.432 C273.496,196.941 272.351,195.669 270.86,195.59 L270.41,195.567 C270.65,188.818 271.791,169.728 277.082,165.816 C296.003,151.83 310.021,137.396 314.224,114.648 C329.893,122.27 344.109,132.423 356.339,144.579 C355.433,189.206 355.433,189.207 355.433,189.207 L355.433,258.28 C355.433,258.28 378.716,280.028 382.277,317.887 C380.951,318.004 379.908,319.106 379.908,320.461 C379.908,321.895 381.07,323.059 382.504,323.059 L382.639,323.059 C382.648,323.293 382.668,323.522 382.677,323.758 C382.764,326.121 382.788,328.938 382.762,332.117 M375.996,443.408 C346.029,464.248 310.863,478.102 272.866,482.594 C276.811,464.156 277.473,438.217 276.889,412.736 C321.603,403.92 359.691,376.426 382.646,338.74 C381.977,365.209 378.768,409.078 375.996,443.408 M375.01,455.455 C344.215,475.436 308.539,488.5 270.19,492.412 C271.054,489.928 271.817,487.195 272.494,484.264 C310.516,479.863 345.739,466.162 375.827,445.492 C375.549,448.924 375.275,452.258 375.01,455.455 M298.251,33.348 C320.631,38.618 341.747,47.191 361.065,58.518 C359.055,68.549 357.637,80.676 357.338,95.398 C356.968,113.635 356.669,128.312 356.429,140.148 C344.219,128.464 330.166,118.693 314.758,111.315 C315.881,103.176 315.808,94.003 314.33,83.465 C311.71,64.792 306.043,47.432 298.251,33.348 M291.099,22.163 C316.889,27.146 341.209,36.298 363.323,48.905 C362.645,51.384 362.006,54.033 361.41,56.844 C341.665,45.33 320.063,36.667 297.168,31.434 C295.26,28.142 293.233,25.042 291.099,22.163 M234.38,25.952 C209.392,27.187 185.446,32.437 163.159,41.053 C162.905,38.389 162.643,35.695 162.372,32.972 C186.745,23.806 213.003,18.524 240.393,17.9 C238.294,20.382 236.286,23.072 234.38,25.952 M214.021,83.465 C213.235,89.066 212.856,94.272 212.833,99.151 C197.491,102.385 182.952,107.816 169.565,115.11 C168.087,98.107 166.141,72.394 163.319,42.723 C185.219,34.206 208.741,28.972 233.286,27.632 C223.819,42.603 216.997,62.26 214.021,83.465 M157.452,43.344 C154.489,44.582 151.561,45.886 148.661,47.244 L148.437,38.714 C151.421,37.37 154.442,36.09 157.489,34.867 L157.452,43.344 z M157.167,110.298 C156.86,115.231 153.22,117.128 150.448,114.978 L148.708,49.006 C151.59,47.646 154.5,46.336 157.446,45.094 L157.167,110.298 z M115.921,109.358 L117.687,66.729 C120.858,64.571 124.083,62.487 127.366,60.488 L123.54,112.455 C121.366,115.378 115.506,115.27 115.921,109.358 M118.169,55.096 C121.462,52.993 124.81,50.971 128.209,49.028 L127.511,58.519 C124.21,60.506 120.961,62.573 117.77,64.719 L118.169,55.096 z M144.647,40.476 L144.09,49.445 C140.413,51.267 136.792,53.183 133.229,55.191 L133.129,46.292 C136.907,44.25 140.751,42.315 144.647,40.476 M133.907,115.225 L133.25,57.033 C136.767,55.031 140.344,53.125 143.974,51.309 L140.06,114.226 C138.526,117.537 135.565,117.406 133.907,115.225 M138.788,459.318 C170.794,476.223 207.233,485.813 245.876,485.813 C246.801,485.813 247.721,485.789 248.644,485.777 C249.26,488.592 249.968,491.207 250.782,493.582 C249.148,493.615 247.516,493.645 245.876,493.645 C206.999,493.645 170.272,484.27 137.833,467.664 C138.192,464.967 138.511,462.18 138.788,459.318 M139.711,375.365 C167.97,400.471 205.144,415.75 245.825,415.762 C244.616,440.967 244.711,466.315 248.305,484.166 C247.494,484.174 246.688,484.195 245.876,484.195 C207.268,484.195 170.875,474.557 138.954,457.578 C141.325,431.559 140.606,399.934 139.711,375.365 M85.85,255.738 C85.85,291.902 97.913,325.297 118.221,352.125 C117.475,358.861 116.719,365.485 115.96,371.973 C113.657,391.68 111.007,416.479 110.188,439.418 C53.948,397.764 17.418,330.94 17.418,255.738 C17.418,181.229 53.278,114.942 108.64,73.212 C106.431,89.644 104.631,103.695 103.198,114.096 C100.13,136.339 106.124,152.718 113.044,166.592 C95.879,192.085 85.85,222.762 85.85,255.738 M109.94,450.869 C48.345,407.83 7.97,336.416 7.97,255.738 C7.97,174.862 48.545,103.296 110.397,60.29 C109.895,63.941 109.409,67.505 108.942,70.967 C52.465,112.931 15.802,180.131 15.802,255.738 C15.802,331.869 52.979,399.469 110.122,441.371 C110.022,444.586 109.96,447.758 109.94,450.869 M490.251,255.738 C490.251,178.224 453.968,109.031 397.5,64.229 C397.495,34.284 397.339,14.897 396.893,12.885 C394.608,2.609 385.499,6.345 380.932,13.195 C378.256,17.21 371.011,25.184 365.238,42.565 C340.665,28.751 313.48,19.062 284.62,14.445 C280.607,10.258 276.314,6.798 271.801,4.212 C290.399,18.059 305.005,47.221 309.71,80.754 C315.569,122.524 299.675,143.536 272.13,163.899 C267.114,167.607 265.814,187.866 265.737,195.358 L264.053,195.34 C264.065,194.207 264.416,167.507 271.129,162.545 C298.177,142.549 313.786,121.932 308.042,80.988 C303.004,45.076 286.552,14.291 266.098,2.448 C262.802,2.109 259.143,2.73 255.859,4.607 C252.666,6.433 249.594,8.709 246.659,11.372 C246.396,11.371 246.137,11.362 245.876,11.362 C216.311,11.362 187.956,16.642 161.704,26.304 C161.366,22.977 161.017,19.618 160.655,16.226 L157.569,16.185 L157.519,27.898 C154.397,29.112 151.311,30.395 148.253,31.732 L147.841,16.114 L146.165,16.084 L145.104,33.12 C141.022,34.976 137.006,36.95 133.046,39.02 L132.772,14.791 L130.733,14.728 L128.778,41.296 C125.298,43.206 121.868,45.196 118.493,47.267 L119.854,14.406 L117.196,13.818 C115.136,27.001 113.274,39.733 111.598,51.665 C45.323,95.42 1.5,170.552 1.5,255.738 C1.5,340.238 44.612,414.85 109.991,458.754 C110.415,479.68 113.224,496.86 120.501,503.678 C136.598,482.76 131.669,403.584 129.741,372.637 C127.918,343.397 125.944,311.699 125.157,276.823 C123.405,301.889 121.147,325.324 118.741,347.391 C100.094,321.594 89.085,289.93 89.085,255.738 C89.085,224.077 98.526,194.584 114.731,169.909 C122.302,184.466 130.187,196.421 128.17,209.984 L130.493,210.303 L127.963,210.169 C126.896,210.11 125.926,210.731 125.483,211.657 C125.366,211.904 125.294,212.174 125.261,212.459 C125.254,212.515 125.237,212.568 125.235,212.625 C125.229,212.732 125.241,212.834 125.249,212.938 C125.317,213.926 125.933,214.768 126.815,215.143 C127.088,215.257 127.379,215.337 127.69,215.354 L128.149,215.378 C127.774,229.421 127.192,242.983 126.46,256.119 C126.786,299.242 129.18,337.639 131.356,372.535 C134.604,424.693 136.278,485.391 121.971,504.432 L123.805,504.416 C130.204,500.156 134.28,489.022 136.809,474.381 C169.659,490.834 206.702,500.115 245.876,500.115 C248.443,500.115 250.999,500.063 253.548,499.983 C254.479,501.676 255.501,503.149 256.621,504.381 C275.635,486.924 266.672,398.586 263.265,365.002 C260.703,339.762 257.969,312.738 255.836,283.51 C254.166,312.836 251.877,340.057 249.535,365.527 C248.248,379.524 246.856,395.922 245.987,412.527 C245.95,412.527 245.913,412.529 245.876,412.529 C204.877,412.529 167.51,396.705 139.543,370.852 C137.842,325.635 136.032,274.918 139.098,215.955 L140.262,216.016 C140.308,216.019 140.354,216.02 140.399,216.02 C141.771,216.02 142.917,214.945 142.991,213.56 C143.065,212.128 141.967,210.907 140.534,210.831 L140.059,210.806 C138.176,184.235 173.128,165.299 169.838,118.663 C183.122,111.265 197.586,105.743 212.872,102.455 C213.772,132.535 229.174,149.483 251.27,165.816 C256.398,169.608 257.627,187.659 257.916,194.909 L257.776,194.902 C256.296,194.812 255.013,195.966 254.936,197.458 C254.856,198.949 256.001,200.221 257.491,200.298 L258.397,200.347 C258.317,224.706 257.634,247.744 256.569,269.621 C258.793,304.174 261.982,335.69 264.939,364.834 C270.758,422.172 275.124,489.549 257.806,505.568 C258.12,505.85 258.439,506.115 258.768,506.36 L261.351,506.274 C263.611,504.688 265.566,502.27 267.259,499.168 C306.279,495.77 342.699,483.166 374.334,463.537 C372.815,481.553 371.703,493.756 371.703,493.756 C371.703,493.756 375.956,497.967 385.306,497.826 C394.652,497.682 398.851,493.479 398.851,493.479 C398.851,493.479 398.383,475.59 397.896,446.93 C454.137,402.117 490.251,333.07 490.251,255.738" fill="#f7f6f2"/>
  </g>
</svg>
